<mxfile host="Electron" modified="2024-05-01T09:14:21.153Z" agent="Mozilla/5.0 (X11; Linux x86_64) AppleWebKit/537.36 (KHTML, like Gecko) draw.io/24.2.5 Chrome/120.0.6099.109 Electron/28.1.0 Safari/537.36" etag="nbi7WZhJtafKMsu9PQhz" version="24.2.5" type="device">
  <diagram name="Page-1" id="oHftcf_uz68O4mcG5Dro">
    <mxGraphModel dx="2074" dy="1230" grid="1" gridSize="10" guides="1" tooltips="1" connect="1" arrows="1" fold="1" page="1" pageScale="1" pageWidth="827" pageHeight="1169" math="0" shadow="0">
      <root>
        <mxCell id="0" />
        <mxCell id="1" parent="0" />
        <mxCell id="9oPGmsGuAc4TyvCCTmej-1" value="" style="rounded=0;whiteSpace=wrap;html=1;fillColor=none;" parent="1" vertex="1">
          <mxGeometry x="290" y="190" width="360" height="550" as="geometry" />
        </mxCell>
        <mxCell id="9oPGmsGuAc4TyvCCTmej-2" value="Biograf Ejer" style="shape=umlActor;verticalLabelPosition=bottom;verticalAlign=top;html=1;outlineConnect=0;" parent="1" vertex="1">
          <mxGeometry x="160" y="410" width="30" height="60" as="geometry" />
        </mxCell>
        <mxCell id="9oPGmsGuAc4TyvCCTmej-3" value="Biograf System" style="text;html=1;align=center;verticalAlign=middle;whiteSpace=wrap;rounded=0;" parent="1" vertex="1">
          <mxGeometry x="440" y="210" width="60" height="30" as="geometry" />
        </mxCell>
        <mxCell id="9oPGmsGuAc4TyvCCTmej-5" value="Opret Sal" style="ellipse;whiteSpace=wrap;html=1;" parent="1" vertex="1">
          <mxGeometry x="410" y="260" width="120" height="80" as="geometry" />
        </mxCell>
        <mxCell id="9oPGmsGuAc4TyvCCTmej-6" value="" style="endArrow=none;html=1;rounded=0;entryX=0;entryY=0.5;entryDx=0;entryDy=0;" parent="1" source="9oPGmsGuAc4TyvCCTmej-2" target="9oPGmsGuAc4TyvCCTmej-5" edge="1">
          <mxGeometry width="50" height="50" relative="1" as="geometry">
            <mxPoint x="220" y="340" as="sourcePoint" />
            <mxPoint x="270" y="290" as="targetPoint" />
          </mxGeometry>
        </mxCell>
        <mxCell id="0TTyDZF8-Pn33Gr3SgQ3-1" value="Opret Forestilling" style="ellipse;whiteSpace=wrap;html=1;" parent="1" vertex="1">
          <mxGeometry x="414" y="370" width="120" height="80" as="geometry" />
        </mxCell>
        <mxCell id="0TTyDZF8-Pn33Gr3SgQ3-2" value="Undersøg plads for reservation/solgt" style="ellipse;whiteSpace=wrap;html=1;" parent="1" vertex="1">
          <mxGeometry x="418" y="460" width="120" height="80" as="geometry" />
        </mxCell>
        <mxCell id="0TTyDZF8-Pn33Gr3SgQ3-3" value="Undersøg indtægt af forestilling" style="ellipse;whiteSpace=wrap;html=1;" parent="1" vertex="1">
          <mxGeometry x="418" y="550" width="120" height="80" as="geometry" />
        </mxCell>
        <mxCell id="0TTyDZF8-Pn33Gr3SgQ3-4" value="Check no-shows" style="ellipse;whiteSpace=wrap;html=1;" parent="1" vertex="1">
          <mxGeometry x="414" y="640" width="120" height="80" as="geometry" />
        </mxCell>
        <mxCell id="0TTyDZF8-Pn33Gr3SgQ3-6" value="" style="endArrow=none;html=1;rounded=0;entryX=0;entryY=0.5;entryDx=0;entryDy=0;" parent="1" target="0TTyDZF8-Pn33Gr3SgQ3-1" edge="1">
          <mxGeometry width="50" height="50" relative="1" as="geometry">
            <mxPoint x="200" y="450" as="sourcePoint" />
            <mxPoint x="330" y="504.5" as="targetPoint" />
          </mxGeometry>
        </mxCell>
        <mxCell id="0TTyDZF8-Pn33Gr3SgQ3-8" value="" style="endArrow=none;html=1;rounded=0;entryX=0;entryY=0.5;entryDx=0;entryDy=0;" parent="1" target="0TTyDZF8-Pn33Gr3SgQ3-3" edge="1">
          <mxGeometry width="50" height="50" relative="1" as="geometry">
            <mxPoint x="200" y="470" as="sourcePoint" />
            <mxPoint x="414" y="670" as="targetPoint" />
          </mxGeometry>
        </mxCell>
        <mxCell id="0TTyDZF8-Pn33Gr3SgQ3-9" value="" style="endArrow=none;html=1;rounded=0;entryX=0;entryY=0.5;entryDx=0;entryDy=0;" parent="1" target="0TTyDZF8-Pn33Gr3SgQ3-4" edge="1">
          <mxGeometry width="50" height="50" relative="1" as="geometry">
            <mxPoint x="200" y="480" as="sourcePoint" />
            <mxPoint x="410" y="750" as="targetPoint" />
          </mxGeometry>
        </mxCell>
        <mxCell id="0TTyDZF8-Pn33Gr3SgQ3-10" value="Sal" style="rounded=0;whiteSpace=wrap;html=1;" parent="1" vertex="1">
          <mxGeometry x="220" y="940" width="120" height="60" as="geometry" />
        </mxCell>
        <mxCell id="0TTyDZF8-Pn33Gr3SgQ3-11" value="Sæde" style="rounded=0;whiteSpace=wrap;html=1;" parent="1" vertex="1">
          <mxGeometry x="530" y="940" width="120" height="60" as="geometry" />
        </mxCell>
        <mxCell id="0TTyDZF8-Pn33Gr3SgQ3-12" value="Forestilling" style="rounded=0;whiteSpace=wrap;html=1;" parent="1" vertex="1">
          <mxGeometry x="220" y="1030" width="120" height="60" as="geometry" />
        </mxCell>
        <mxCell id="0TTyDZF8-Pn33Gr3SgQ3-13" value="Reservation" style="rounded=0;whiteSpace=wrap;html=1;" parent="1" vertex="1">
          <mxGeometry x="380" y="1030" width="120" height="60" as="geometry" />
        </mxCell>
        <mxCell id="0TTyDZF8-Pn33Gr3SgQ3-27" style="edgeStyle=orthogonalEdgeStyle;rounded=0;orthogonalLoop=1;jettySize=auto;html=1;endArrow=none;endFill=0;" parent="1" source="0TTyDZF8-Pn33Gr3SgQ3-15" target="0TTyDZF8-Pn33Gr3SgQ3-25" edge="1">
          <mxGeometry relative="1" as="geometry" />
        </mxCell>
        <mxCell id="0TTyDZF8-Pn33Gr3SgQ3-15" value="Sal" style="rounded=0;whiteSpace=wrap;html=1;strokeColor=default;" parent="1" vertex="1">
          <mxGeometry x="185" y="1390" width="120" height="60" as="geometry" />
        </mxCell>
        <mxCell id="0TTyDZF8-Pn33Gr3SgQ3-16" value="Sæde" style="rounded=0;whiteSpace=wrap;html=1;" parent="1" vertex="1">
          <mxGeometry x="530" y="1390" width="120" height="60" as="geometry" />
        </mxCell>
        <mxCell id="0TTyDZF8-Pn33Gr3SgQ3-24" style="edgeStyle=orthogonalEdgeStyle;rounded=0;orthogonalLoop=1;jettySize=auto;html=1;endArrow=none;endFill=0;" parent="1" source="0TTyDZF8-Pn33Gr3SgQ3-17" target="0TTyDZF8-Pn33Gr3SgQ3-15" edge="1">
          <mxGeometry relative="1" as="geometry" />
        </mxCell>
        <mxCell id="0TTyDZF8-Pn33Gr3SgQ3-17" value="Forestilling" style="rounded=0;whiteSpace=wrap;html=1;" parent="1" vertex="1">
          <mxGeometry x="185" y="1270" width="120" height="60" as="geometry" />
        </mxCell>
        <mxCell id="0TTyDZF8-Pn33Gr3SgQ3-22" style="edgeStyle=orthogonalEdgeStyle;rounded=0;orthogonalLoop=1;jettySize=auto;html=1;endArrow=none;endFill=0;" parent="1" source="0TTyDZF8-Pn33Gr3SgQ3-18" target="0TTyDZF8-Pn33Gr3SgQ3-16" edge="1">
          <mxGeometry relative="1" as="geometry" />
        </mxCell>
        <mxCell id="0TTyDZF8-Pn33Gr3SgQ3-23" style="edgeStyle=orthogonalEdgeStyle;rounded=0;orthogonalLoop=1;jettySize=auto;html=1;endArrow=none;endFill=0;" parent="1" source="0TTyDZF8-Pn33Gr3SgQ3-18" target="0TTyDZF8-Pn33Gr3SgQ3-17" edge="1">
          <mxGeometry relative="1" as="geometry" />
        </mxCell>
        <mxCell id="0TTyDZF8-Pn33Gr3SgQ3-18" value="Reservation" style="rounded=0;whiteSpace=wrap;html=1;" parent="1" vertex="1">
          <mxGeometry x="530" y="1270" width="120" height="60" as="geometry" />
        </mxCell>
        <mxCell id="0TTyDZF8-Pn33Gr3SgQ3-29" style="edgeStyle=orthogonalEdgeStyle;rounded=0;orthogonalLoop=1;jettySize=auto;html=1;endArrow=none;endFill=0;" parent="1" source="0TTyDZF8-Pn33Gr3SgQ3-19" target="0TTyDZF8-Pn33Gr3SgQ3-18" edge="1">
          <mxGeometry relative="1" as="geometry" />
        </mxCell>
        <mxCell id="0TTyDZF8-Pn33Gr3SgQ3-19" value="Billet" style="rounded=0;whiteSpace=wrap;html=1;" parent="1" vertex="1">
          <mxGeometry x="530" y="1160" width="120" height="60" as="geometry" />
        </mxCell>
        <mxCell id="0TTyDZF8-Pn33Gr3SgQ3-28" style="edgeStyle=orthogonalEdgeStyle;rounded=0;orthogonalLoop=1;jettySize=auto;html=1;entryX=0;entryY=0.5;entryDx=0;entryDy=0;endArrow=none;endFill=0;" parent="1" source="0TTyDZF8-Pn33Gr3SgQ3-25" target="0TTyDZF8-Pn33Gr3SgQ3-16" edge="1">
          <mxGeometry relative="1" as="geometry" />
        </mxCell>
        <mxCell id="0TTyDZF8-Pn33Gr3SgQ3-25" value="Række" style="rounded=0;whiteSpace=wrap;html=1;" parent="1" vertex="1">
          <mxGeometry x="366" y="1390" width="120" height="60" as="geometry" />
        </mxCell>
        <mxCell id="0TTyDZF8-Pn33Gr3SgQ3-30" value="Række" style="rounded=0;whiteSpace=wrap;html=1;" parent="1" vertex="1">
          <mxGeometry x="380" y="940" width="120" height="60" as="geometry" />
        </mxCell>
        <mxCell id="0TTyDZF8-Pn33Gr3SgQ3-47" value="" style="endArrow=none;html=1;rounded=0;entryX=0;entryY=0.5;entryDx=0;entryDy=0;" parent="1" target="0TTyDZF8-Pn33Gr3SgQ3-2" edge="1">
          <mxGeometry width="50" height="50" relative="1" as="geometry">
            <mxPoint x="200" y="460" as="sourcePoint" />
            <mxPoint x="290" y="630" as="targetPoint" />
          </mxGeometry>
        </mxCell>
        <mxCell id="0TTyDZF8-Pn33Gr3SgQ3-49" style="edgeStyle=orthogonalEdgeStyle;rounded=0;orthogonalLoop=1;jettySize=auto;html=1;endArrow=none;endFill=0;" parent="1" source="0TTyDZF8-Pn33Gr3SgQ3-48" target="0TTyDZF8-Pn33Gr3SgQ3-17" edge="1">
          <mxGeometry relative="1" as="geometry" />
        </mxCell>
        <mxCell id="0TTyDZF8-Pn33Gr3SgQ3-48" value="Film" style="rounded=0;whiteSpace=wrap;html=1;" parent="1" vertex="1">
          <mxGeometry x="26.5" y="1270" width="120" height="60" as="geometry" />
        </mxCell>
        <mxCell id="0TTyDZF8-Pn33Gr3SgQ3-52" value="Film" style="shape=table;startSize=30;container=1;collapsible=1;childLayout=tableLayout;fixedRows=1;rowLines=0;fontStyle=1;align=center;resizeLast=1;html=1;" parent="1" vertex="1">
          <mxGeometry x="58.75" y="2915" width="180" height="120" as="geometry" />
        </mxCell>
        <mxCell id="0TTyDZF8-Pn33Gr3SgQ3-53" value="" style="shape=tableRow;horizontal=0;startSize=0;swimlaneHead=0;swimlaneBody=0;fillColor=none;collapsible=0;dropTarget=0;points=[[0,0.5],[1,0.5]];portConstraint=eastwest;top=0;left=0;right=0;bottom=1;" parent="0TTyDZF8-Pn33Gr3SgQ3-52" vertex="1">
          <mxGeometry y="30" width="180" height="30" as="geometry" />
        </mxCell>
        <mxCell id="0TTyDZF8-Pn33Gr3SgQ3-54" value="PK" style="shape=partialRectangle;connectable=0;fillColor=none;top=0;left=0;bottom=0;right=0;fontStyle=1;overflow=hidden;whiteSpace=wrap;html=1;" parent="0TTyDZF8-Pn33Gr3SgQ3-53" vertex="1">
          <mxGeometry width="30" height="30" as="geometry">
            <mxRectangle width="30" height="30" as="alternateBounds" />
          </mxGeometry>
        </mxCell>
        <mxCell id="0TTyDZF8-Pn33Gr3SgQ3-55" value="UniqueID" style="shape=partialRectangle;connectable=0;fillColor=none;top=0;left=0;bottom=0;right=0;align=left;spacingLeft=6;fontStyle=5;overflow=hidden;whiteSpace=wrap;html=1;" parent="0TTyDZF8-Pn33Gr3SgQ3-53" vertex="1">
          <mxGeometry x="30" width="150" height="30" as="geometry">
            <mxRectangle width="150" height="30" as="alternateBounds" />
          </mxGeometry>
        </mxCell>
        <mxCell id="0TTyDZF8-Pn33Gr3SgQ3-56" value="" style="shape=tableRow;horizontal=0;startSize=0;swimlaneHead=0;swimlaneBody=0;fillColor=none;collapsible=0;dropTarget=0;points=[[0,0.5],[1,0.5]];portConstraint=eastwest;top=0;left=0;right=0;bottom=0;" parent="0TTyDZF8-Pn33Gr3SgQ3-52" vertex="1">
          <mxGeometry y="60" width="180" height="30" as="geometry" />
        </mxCell>
        <mxCell id="0TTyDZF8-Pn33Gr3SgQ3-57" value="" style="shape=partialRectangle;connectable=0;fillColor=none;top=0;left=0;bottom=0;right=0;editable=1;overflow=hidden;whiteSpace=wrap;html=1;" parent="0TTyDZF8-Pn33Gr3SgQ3-56" vertex="1">
          <mxGeometry width="30" height="30" as="geometry">
            <mxRectangle width="30" height="30" as="alternateBounds" />
          </mxGeometry>
        </mxCell>
        <mxCell id="0TTyDZF8-Pn33Gr3SgQ3-58" value="Navn" style="shape=partialRectangle;connectable=0;fillColor=none;top=0;left=0;bottom=0;right=0;align=left;spacingLeft=6;overflow=hidden;whiteSpace=wrap;html=1;" parent="0TTyDZF8-Pn33Gr3SgQ3-56" vertex="1">
          <mxGeometry x="30" width="150" height="30" as="geometry">
            <mxRectangle width="150" height="30" as="alternateBounds" />
          </mxGeometry>
        </mxCell>
        <mxCell id="0TTyDZF8-Pn33Gr3SgQ3-59" value="" style="shape=tableRow;horizontal=0;startSize=0;swimlaneHead=0;swimlaneBody=0;fillColor=none;collapsible=0;dropTarget=0;points=[[0,0.5],[1,0.5]];portConstraint=eastwest;top=0;left=0;right=0;bottom=0;" parent="0TTyDZF8-Pn33Gr3SgQ3-52" vertex="1">
          <mxGeometry y="90" width="180" height="30" as="geometry" />
        </mxCell>
        <mxCell id="0TTyDZF8-Pn33Gr3SgQ3-60" value="" style="shape=partialRectangle;connectable=0;fillColor=none;top=0;left=0;bottom=0;right=0;editable=1;overflow=hidden;whiteSpace=wrap;html=1;" parent="0TTyDZF8-Pn33Gr3SgQ3-59" vertex="1">
          <mxGeometry width="30" height="30" as="geometry">
            <mxRectangle width="30" height="30" as="alternateBounds" />
          </mxGeometry>
        </mxCell>
        <mxCell id="0TTyDZF8-Pn33Gr3SgQ3-61" value="Længde" style="shape=partialRectangle;connectable=0;fillColor=none;top=0;left=0;bottom=0;right=0;align=left;spacingLeft=6;overflow=hidden;whiteSpace=wrap;html=1;" parent="0TTyDZF8-Pn33Gr3SgQ3-59" vertex="1">
          <mxGeometry x="30" width="150" height="30" as="geometry">
            <mxRectangle width="150" height="30" as="alternateBounds" />
          </mxGeometry>
        </mxCell>
        <mxCell id="0TTyDZF8-Pn33Gr3SgQ3-168" style="edgeStyle=orthogonalEdgeStyle;rounded=0;orthogonalLoop=1;jettySize=auto;html=1;" parent="1" source="0TTyDZF8-Pn33Gr3SgQ3-78" target="0TTyDZF8-Pn33Gr3SgQ3-144" edge="1">
          <mxGeometry relative="1" as="geometry" />
        </mxCell>
        <mxCell id="0TTyDZF8-Pn33Gr3SgQ3-78" value="Forestilling" style="shape=table;startSize=30;container=1;collapsible=1;childLayout=tableLayout;fixedRows=1;rowLines=0;fontStyle=1;align=center;resizeLast=1;html=1;" parent="1" vertex="1">
          <mxGeometry x="300.25" y="2900" width="180" height="180" as="geometry" />
        </mxCell>
        <mxCell id="0TTyDZF8-Pn33Gr3SgQ3-79" value="" style="shape=tableRow;horizontal=0;startSize=0;swimlaneHead=0;swimlaneBody=0;fillColor=none;collapsible=0;dropTarget=0;points=[[0,0.5],[1,0.5]];portConstraint=eastwest;top=0;left=0;right=0;bottom=1;" parent="0TTyDZF8-Pn33Gr3SgQ3-78" vertex="1">
          <mxGeometry y="30" width="180" height="30" as="geometry" />
        </mxCell>
        <mxCell id="0TTyDZF8-Pn33Gr3SgQ3-80" value="PK" style="shape=partialRectangle;connectable=0;fillColor=none;top=0;left=0;bottom=0;right=0;fontStyle=1;overflow=hidden;whiteSpace=wrap;html=1;" parent="0TTyDZF8-Pn33Gr3SgQ3-79" vertex="1">
          <mxGeometry width="30" height="30" as="geometry">
            <mxRectangle width="30" height="30" as="alternateBounds" />
          </mxGeometry>
        </mxCell>
        <mxCell id="0TTyDZF8-Pn33Gr3SgQ3-81" value="Film,Sal,Startid" style="shape=partialRectangle;connectable=0;fillColor=none;top=0;left=0;bottom=0;right=0;align=left;spacingLeft=6;fontStyle=5;overflow=hidden;whiteSpace=wrap;html=1;" parent="0TTyDZF8-Pn33Gr3SgQ3-79" vertex="1">
          <mxGeometry x="30" width="150" height="30" as="geometry">
            <mxRectangle width="150" height="30" as="alternateBounds" />
          </mxGeometry>
        </mxCell>
        <mxCell id="0TTyDZF8-Pn33Gr3SgQ3-82" value="" style="shape=tableRow;horizontal=0;startSize=0;swimlaneHead=0;swimlaneBody=0;fillColor=none;collapsible=0;dropTarget=0;points=[[0,0.5],[1,0.5]];portConstraint=eastwest;top=0;left=0;right=0;bottom=0;" parent="0TTyDZF8-Pn33Gr3SgQ3-78" vertex="1">
          <mxGeometry y="60" width="180" height="30" as="geometry" />
        </mxCell>
        <mxCell id="0TTyDZF8-Pn33Gr3SgQ3-83" value="" style="shape=partialRectangle;connectable=0;fillColor=none;top=0;left=0;bottom=0;right=0;editable=1;overflow=hidden;whiteSpace=wrap;html=1;" parent="0TTyDZF8-Pn33Gr3SgQ3-82" vertex="1">
          <mxGeometry width="30" height="30" as="geometry">
            <mxRectangle width="30" height="30" as="alternateBounds" />
          </mxGeometry>
        </mxCell>
        <mxCell id="0TTyDZF8-Pn33Gr3SgQ3-84" value="&lt;b&gt;FK&amp;nbsp;&lt;/b&gt;Film" style="shape=partialRectangle;connectable=0;fillColor=none;top=0;left=0;bottom=0;right=0;align=left;spacingLeft=6;overflow=hidden;whiteSpace=wrap;html=1;" parent="0TTyDZF8-Pn33Gr3SgQ3-82" vertex="1">
          <mxGeometry x="30" width="150" height="30" as="geometry">
            <mxRectangle width="150" height="30" as="alternateBounds" />
          </mxGeometry>
        </mxCell>
        <mxCell id="0TTyDZF8-Pn33Gr3SgQ3-85" value="" style="shape=tableRow;horizontal=0;startSize=0;swimlaneHead=0;swimlaneBody=0;fillColor=none;collapsible=0;dropTarget=0;points=[[0,0.5],[1,0.5]];portConstraint=eastwest;top=0;left=0;right=0;bottom=0;" parent="0TTyDZF8-Pn33Gr3SgQ3-78" vertex="1">
          <mxGeometry y="90" width="180" height="30" as="geometry" />
        </mxCell>
        <mxCell id="0TTyDZF8-Pn33Gr3SgQ3-86" value="" style="shape=partialRectangle;connectable=0;fillColor=none;top=0;left=0;bottom=0;right=0;editable=1;overflow=hidden;whiteSpace=wrap;html=1;" parent="0TTyDZF8-Pn33Gr3SgQ3-85" vertex="1">
          <mxGeometry width="30" height="30" as="geometry">
            <mxRectangle width="30" height="30" as="alternateBounds" />
          </mxGeometry>
        </mxCell>
        <mxCell id="0TTyDZF8-Pn33Gr3SgQ3-87" value="&lt;b&gt;FK&lt;/b&gt; Sal" style="shape=partialRectangle;connectable=0;fillColor=none;top=0;left=0;bottom=0;right=0;align=left;spacingLeft=6;overflow=hidden;whiteSpace=wrap;html=1;" parent="0TTyDZF8-Pn33Gr3SgQ3-85" vertex="1">
          <mxGeometry x="30" width="150" height="30" as="geometry">
            <mxRectangle width="150" height="30" as="alternateBounds" />
          </mxGeometry>
        </mxCell>
        <mxCell id="0TTyDZF8-Pn33Gr3SgQ3-88" value="" style="shape=tableRow;horizontal=0;startSize=0;swimlaneHead=0;swimlaneBody=0;fillColor=none;collapsible=0;dropTarget=0;points=[[0,0.5],[1,0.5]];portConstraint=eastwest;top=0;left=0;right=0;bottom=0;" parent="0TTyDZF8-Pn33Gr3SgQ3-78" vertex="1">
          <mxGeometry y="120" width="180" height="30" as="geometry" />
        </mxCell>
        <mxCell id="0TTyDZF8-Pn33Gr3SgQ3-89" value="" style="shape=partialRectangle;connectable=0;fillColor=none;top=0;left=0;bottom=0;right=0;editable=1;overflow=hidden;whiteSpace=wrap;html=1;" parent="0TTyDZF8-Pn33Gr3SgQ3-88" vertex="1">
          <mxGeometry width="30" height="30" as="geometry">
            <mxRectangle width="30" height="30" as="alternateBounds" />
          </mxGeometry>
        </mxCell>
        <mxCell id="0TTyDZF8-Pn33Gr3SgQ3-90" value="Startid" style="shape=partialRectangle;connectable=0;fillColor=none;top=0;left=0;bottom=0;right=0;align=left;spacingLeft=6;overflow=hidden;whiteSpace=wrap;html=1;" parent="0TTyDZF8-Pn33Gr3SgQ3-88" vertex="1">
          <mxGeometry x="30" width="150" height="30" as="geometry">
            <mxRectangle width="150" height="30" as="alternateBounds" />
          </mxGeometry>
        </mxCell>
        <mxCell id="0TTyDZF8-Pn33Gr3SgQ3-180" value="" style="shape=tableRow;horizontal=0;startSize=0;swimlaneHead=0;swimlaneBody=0;fillColor=none;collapsible=0;dropTarget=0;points=[[0,0.5],[1,0.5]];portConstraint=eastwest;top=0;left=0;right=0;bottom=0;" parent="0TTyDZF8-Pn33Gr3SgQ3-78" vertex="1">
          <mxGeometry y="150" width="180" height="30" as="geometry" />
        </mxCell>
        <mxCell id="0TTyDZF8-Pn33Gr3SgQ3-181" value="" style="shape=partialRectangle;connectable=0;fillColor=none;top=0;left=0;bottom=0;right=0;editable=1;overflow=hidden;whiteSpace=wrap;html=1;" parent="0TTyDZF8-Pn33Gr3SgQ3-180" vertex="1">
          <mxGeometry width="30" height="30" as="geometry">
            <mxRectangle width="30" height="30" as="alternateBounds" />
          </mxGeometry>
        </mxCell>
        <mxCell id="0TTyDZF8-Pn33Gr3SgQ3-182" value="&lt;b&gt;FK&lt;/b&gt; Sal" style="shape=partialRectangle;connectable=0;fillColor=none;top=0;left=0;bottom=0;right=0;align=left;spacingLeft=6;overflow=hidden;whiteSpace=wrap;html=1;" parent="0TTyDZF8-Pn33Gr3SgQ3-180" vertex="1">
          <mxGeometry x="30" width="150" height="30" as="geometry">
            <mxRectangle width="150" height="30" as="alternateBounds" />
          </mxGeometry>
        </mxCell>
        <mxCell id="0TTyDZF8-Pn33Gr3SgQ3-91" style="edgeStyle=orthogonalEdgeStyle;rounded=0;orthogonalLoop=1;jettySize=auto;html=1;" parent="1" source="0TTyDZF8-Pn33Gr3SgQ3-82" target="0TTyDZF8-Pn33Gr3SgQ3-52" edge="1">
          <mxGeometry relative="1" as="geometry" />
        </mxCell>
        <mxCell id="0TTyDZF8-Pn33Gr3SgQ3-166" style="edgeStyle=orthogonalEdgeStyle;rounded=0;orthogonalLoop=1;jettySize=auto;html=1;" parent="1" source="0TTyDZF8-Pn33Gr3SgQ3-105" target="0TTyDZF8-Pn33Gr3SgQ3-78" edge="1">
          <mxGeometry relative="1" as="geometry" />
        </mxCell>
        <mxCell id="0TTyDZF8-Pn33Gr3SgQ3-169" style="edgeStyle=orthogonalEdgeStyle;rounded=0;orthogonalLoop=1;jettySize=auto;html=1;" parent="1" source="0TTyDZF8-Pn33Gr3SgQ3-105" target="0TTyDZF8-Pn33Gr3SgQ3-158" edge="1">
          <mxGeometry relative="1" as="geometry">
            <Array as="points">
              <mxPoint x="680.25" y="3330" />
            </Array>
          </mxGeometry>
        </mxCell>
        <mxCell id="0TTyDZF8-Pn33Gr3SgQ3-105" value="Reservation" style="shape=table;startSize=30;container=1;collapsible=1;childLayout=tableLayout;fixedRows=1;rowLines=0;fontStyle=1;align=center;resizeLast=1;html=1;whiteSpace=wrap;" parent="1" vertex="1">
          <mxGeometry x="580.25" y="2913.5" width="180" height="153" as="geometry" />
        </mxCell>
        <mxCell id="0TTyDZF8-Pn33Gr3SgQ3-112" value="" style="shape=tableRow;horizontal=0;startSize=0;swimlaneHead=0;swimlaneBody=0;fillColor=none;collapsible=0;dropTarget=0;points=[[0,0.5],[1,0.5]];portConstraint=eastwest;top=0;left=0;right=0;bottom=0;html=1;" parent="0TTyDZF8-Pn33Gr3SgQ3-105" vertex="1">
          <mxGeometry y="30" width="180" height="63" as="geometry" />
        </mxCell>
        <mxCell id="0TTyDZF8-Pn33Gr3SgQ3-113" value="PK" style="shape=partialRectangle;connectable=0;fillColor=none;top=0;left=0;bottom=0;right=0;editable=1;overflow=hidden;html=1;whiteSpace=wrap;" parent="0TTyDZF8-Pn33Gr3SgQ3-112" vertex="1">
          <mxGeometry width="60" height="63" as="geometry">
            <mxRectangle width="60" height="63" as="alternateBounds" />
          </mxGeometry>
        </mxCell>
        <mxCell id="0TTyDZF8-Pn33Gr3SgQ3-114" value="Forestilling, Sæde" style="shape=partialRectangle;connectable=0;fillColor=none;top=0;left=0;bottom=0;right=0;align=left;spacingLeft=6;overflow=hidden;html=1;whiteSpace=wrap;" parent="0TTyDZF8-Pn33Gr3SgQ3-112" vertex="1">
          <mxGeometry x="60" width="120" height="63" as="geometry">
            <mxRectangle width="120" height="63" as="alternateBounds" />
          </mxGeometry>
        </mxCell>
        <mxCell id="0TTyDZF8-Pn33Gr3SgQ3-183" value="" style="shape=tableRow;horizontal=0;startSize=0;swimlaneHead=0;swimlaneBody=0;fillColor=none;collapsible=0;dropTarget=0;points=[[0,0.5],[1,0.5]];portConstraint=eastwest;top=0;left=0;right=0;bottom=0;html=1;" parent="0TTyDZF8-Pn33Gr3SgQ3-105" vertex="1">
          <mxGeometry y="93" width="180" height="30" as="geometry" />
        </mxCell>
        <mxCell id="0TTyDZF8-Pn33Gr3SgQ3-184" value="" style="shape=partialRectangle;connectable=0;fillColor=none;top=0;left=0;bottom=0;right=0;editable=1;overflow=hidden;html=1;whiteSpace=wrap;" parent="0TTyDZF8-Pn33Gr3SgQ3-183" vertex="1">
          <mxGeometry width="60" height="30" as="geometry">
            <mxRectangle width="60" height="30" as="alternateBounds" />
          </mxGeometry>
        </mxCell>
        <mxCell id="0TTyDZF8-Pn33Gr3SgQ3-185" value="Solgt" style="shape=partialRectangle;connectable=0;fillColor=none;top=0;left=0;bottom=0;right=0;align=left;spacingLeft=6;overflow=hidden;html=1;whiteSpace=wrap;" parent="0TTyDZF8-Pn33Gr3SgQ3-183" vertex="1">
          <mxGeometry x="60" width="120" height="30" as="geometry">
            <mxRectangle width="120" height="30" as="alternateBounds" />
          </mxGeometry>
        </mxCell>
        <mxCell id="0TTyDZF8-Pn33Gr3SgQ3-186" value="" style="shape=tableRow;horizontal=0;startSize=0;swimlaneHead=0;swimlaneBody=0;fillColor=none;collapsible=0;dropTarget=0;points=[[0,0.5],[1,0.5]];portConstraint=eastwest;top=0;left=0;right=0;bottom=0;html=1;" parent="0TTyDZF8-Pn33Gr3SgQ3-105" vertex="1">
          <mxGeometry y="123" width="180" height="30" as="geometry" />
        </mxCell>
        <mxCell id="0TTyDZF8-Pn33Gr3SgQ3-187" value="" style="shape=partialRectangle;connectable=0;fillColor=none;top=0;left=0;bottom=0;right=0;editable=1;overflow=hidden;html=1;whiteSpace=wrap;" parent="0TTyDZF8-Pn33Gr3SgQ3-186" vertex="1">
          <mxGeometry width="60" height="30" as="geometry">
            <mxRectangle width="60" height="30" as="alternateBounds" />
          </mxGeometry>
        </mxCell>
        <mxCell id="0TTyDZF8-Pn33Gr3SgQ3-188" value="Navn på resevør" style="shape=partialRectangle;connectable=0;fillColor=none;top=0;left=0;bottom=0;right=0;align=left;spacingLeft=6;overflow=hidden;html=1;whiteSpace=wrap;" parent="0TTyDZF8-Pn33Gr3SgQ3-186" vertex="1">
          <mxGeometry x="60" width="120" height="30" as="geometry">
            <mxRectangle width="120" height="30" as="alternateBounds" />
          </mxGeometry>
        </mxCell>
        <mxCell id="0TTyDZF8-Pn33Gr3SgQ3-144" value="Sal" style="shape=table;startSize=30;container=1;collapsible=1;childLayout=tableLayout;fixedRows=1;rowLines=0;fontStyle=1;align=center;resizeLast=1;html=1;" parent="1" vertex="1">
          <mxGeometry x="300.25" y="3110" width="180" height="60" as="geometry" />
        </mxCell>
        <mxCell id="0TTyDZF8-Pn33Gr3SgQ3-145" value="" style="shape=tableRow;horizontal=0;startSize=0;swimlaneHead=0;swimlaneBody=0;fillColor=none;collapsible=0;dropTarget=0;points=[[0,0.5],[1,0.5]];portConstraint=eastwest;top=0;left=0;right=0;bottom=1;" parent="0TTyDZF8-Pn33Gr3SgQ3-144" vertex="1">
          <mxGeometry y="30" width="180" height="30" as="geometry" />
        </mxCell>
        <mxCell id="0TTyDZF8-Pn33Gr3SgQ3-146" value="PK" style="shape=partialRectangle;connectable=0;fillColor=none;top=0;left=0;bottom=0;right=0;fontStyle=1;overflow=hidden;whiteSpace=wrap;html=1;" parent="0TTyDZF8-Pn33Gr3SgQ3-145" vertex="1">
          <mxGeometry width="30" height="30" as="geometry">
            <mxRectangle width="30" height="30" as="alternateBounds" />
          </mxGeometry>
        </mxCell>
        <mxCell id="0TTyDZF8-Pn33Gr3SgQ3-147" value="Navn" style="shape=partialRectangle;connectable=0;fillColor=none;top=0;left=0;bottom=0;right=0;align=left;spacingLeft=6;fontStyle=5;overflow=hidden;whiteSpace=wrap;html=1;" parent="0TTyDZF8-Pn33Gr3SgQ3-145" vertex="1">
          <mxGeometry x="30" width="150" height="30" as="geometry">
            <mxRectangle width="150" height="30" as="alternateBounds" />
          </mxGeometry>
        </mxCell>
        <mxCell id="0TTyDZF8-Pn33Gr3SgQ3-178" style="edgeStyle=orthogonalEdgeStyle;rounded=0;orthogonalLoop=1;jettySize=auto;html=1;" parent="1" source="0TTyDZF8-Pn33Gr3SgQ3-154" target="0TTyDZF8-Pn33Gr3SgQ3-144" edge="1">
          <mxGeometry relative="1" as="geometry" />
        </mxCell>
        <mxCell id="0TTyDZF8-Pn33Gr3SgQ3-154" value="Række" style="shape=table;startSize=30;container=1;collapsible=1;childLayout=tableLayout;fixedRows=1;rowLines=0;fontStyle=1;align=center;resizeLast=1;html=1;" parent="1" vertex="1">
          <mxGeometry x="300.25" y="3208" width="180" height="60" as="geometry" />
        </mxCell>
        <mxCell id="0TTyDZF8-Pn33Gr3SgQ3-155" value="" style="shape=tableRow;horizontal=0;startSize=0;swimlaneHead=0;swimlaneBody=0;fillColor=none;collapsible=0;dropTarget=0;points=[[0,0.5],[1,0.5]];portConstraint=eastwest;top=0;left=0;right=0;bottom=1;" parent="0TTyDZF8-Pn33Gr3SgQ3-154" vertex="1">
          <mxGeometry y="30" width="180" height="30" as="geometry" />
        </mxCell>
        <mxCell id="0TTyDZF8-Pn33Gr3SgQ3-156" value="PK" style="shape=partialRectangle;connectable=0;fillColor=none;top=0;left=0;bottom=0;right=0;fontStyle=1;overflow=hidden;whiteSpace=wrap;html=1;" parent="0TTyDZF8-Pn33Gr3SgQ3-155" vertex="1">
          <mxGeometry width="30" height="30" as="geometry">
            <mxRectangle width="30" height="30" as="alternateBounds" />
          </mxGeometry>
        </mxCell>
        <mxCell id="0TTyDZF8-Pn33Gr3SgQ3-157" value="Nr,Sal" style="shape=partialRectangle;connectable=0;fillColor=none;top=0;left=0;bottom=0;right=0;align=left;spacingLeft=6;fontStyle=5;overflow=hidden;whiteSpace=wrap;html=1;" parent="0TTyDZF8-Pn33Gr3SgQ3-155" vertex="1">
          <mxGeometry x="30" width="150" height="30" as="geometry">
            <mxRectangle width="150" height="30" as="alternateBounds" />
          </mxGeometry>
        </mxCell>
        <mxCell id="0TTyDZF8-Pn33Gr3SgQ3-179" style="edgeStyle=orthogonalEdgeStyle;rounded=0;orthogonalLoop=1;jettySize=auto;html=1;" parent="1" source="0TTyDZF8-Pn33Gr3SgQ3-158" target="0TTyDZF8-Pn33Gr3SgQ3-154" edge="1">
          <mxGeometry relative="1" as="geometry" />
        </mxCell>
        <mxCell id="0TTyDZF8-Pn33Gr3SgQ3-158" value="Sæde" style="shape=table;startSize=30;container=1;collapsible=1;childLayout=tableLayout;fixedRows=1;rowLines=0;fontStyle=1;align=center;resizeLast=1;html=1;" parent="1" vertex="1">
          <mxGeometry x="300.25" y="3300" width="180" height="60" as="geometry" />
        </mxCell>
        <mxCell id="0TTyDZF8-Pn33Gr3SgQ3-159" value="" style="shape=tableRow;horizontal=0;startSize=0;swimlaneHead=0;swimlaneBody=0;fillColor=none;collapsible=0;dropTarget=0;points=[[0,0.5],[1,0.5]];portConstraint=eastwest;top=0;left=0;right=0;bottom=1;" parent="0TTyDZF8-Pn33Gr3SgQ3-158" vertex="1">
          <mxGeometry y="30" width="180" height="30" as="geometry" />
        </mxCell>
        <mxCell id="0TTyDZF8-Pn33Gr3SgQ3-160" value="PK" style="shape=partialRectangle;connectable=0;fillColor=none;top=0;left=0;bottom=0;right=0;fontStyle=1;overflow=hidden;whiteSpace=wrap;html=1;" parent="0TTyDZF8-Pn33Gr3SgQ3-159" vertex="1">
          <mxGeometry width="30" height="30" as="geometry">
            <mxRectangle width="30" height="30" as="alternateBounds" />
          </mxGeometry>
        </mxCell>
        <mxCell id="0TTyDZF8-Pn33Gr3SgQ3-161" value="Nr,Række" style="shape=partialRectangle;connectable=0;fillColor=none;top=0;left=0;bottom=0;right=0;align=left;spacingLeft=6;fontStyle=5;overflow=hidden;whiteSpace=wrap;html=1;" parent="0TTyDZF8-Pn33Gr3SgQ3-159" vertex="1">
          <mxGeometry x="30" width="150" height="30" as="geometry">
            <mxRectangle width="150" height="30" as="alternateBounds" />
          </mxGeometry>
        </mxCell>
        <mxCell id="0TTyDZF8-Pn33Gr3SgQ3-171" value="" style="shape=tableRow;horizontal=0;startSize=0;swimlaneHead=0;swimlaneBody=0;fillColor=none;collapsible=0;dropTarget=0;points=[[0,0.5],[1,0.5]];portConstraint=eastwest;top=0;left=0;right=0;bottom=0;" parent="1" vertex="1">
          <mxGeometry x="560.25" y="3070" width="180" height="30" as="geometry" />
        </mxCell>
        <mxCell id="0TTyDZF8-Pn33Gr3SgQ3-172" value="" style="shape=partialRectangle;connectable=0;fillColor=none;top=0;left=0;bottom=0;right=0;editable=1;overflow=hidden;whiteSpace=wrap;html=1;" parent="0TTyDZF8-Pn33Gr3SgQ3-171" vertex="1">
          <mxGeometry width="30" height="30" as="geometry">
            <mxRectangle width="30" height="30" as="alternateBounds" />
          </mxGeometry>
        </mxCell>
        <mxCell id="0TTyDZF8-Pn33Gr3SgQ3-174" value="" style="shape=tableRow;horizontal=0;startSize=0;swimlaneHead=0;swimlaneBody=0;fillColor=none;collapsible=0;dropTarget=0;points=[[0,0.5],[1,0.5]];portConstraint=eastwest;top=0;left=0;right=0;bottom=0;html=1;" parent="1" vertex="1">
          <mxGeometry x="580.25" y="3060" width="180" height="35" as="geometry" />
        </mxCell>
        <mxCell id="0TTyDZF8-Pn33Gr3SgQ3-175" value="" style="shape=partialRectangle;connectable=0;fillColor=none;top=0;left=0;bottom=0;right=0;editable=1;overflow=hidden;html=1;whiteSpace=wrap;" parent="0TTyDZF8-Pn33Gr3SgQ3-174" vertex="1">
          <mxGeometry width="60" height="35" as="geometry">
            <mxRectangle width="60" height="35" as="alternateBounds" />
          </mxGeometry>
        </mxCell>
        <mxCell id="0TTyDZF8-Pn33Gr3SgQ3-191" value="&lt;b&gt;Film&lt;/b&gt;" style="swimlane;fontStyle=0;childLayout=stackLayout;horizontal=1;startSize=26;fillColor=none;horizontalStack=0;resizeParent=1;resizeParentMax=0;resizeLast=0;collapsible=1;marginBottom=0;whiteSpace=wrap;html=1;" parent="1" vertex="1">
          <mxGeometry x="70" y="1634" width="140" height="78" as="geometry" />
        </mxCell>
        <mxCell id="0TTyDZF8-Pn33Gr3SgQ3-192" value="Navn" style="text;strokeColor=none;fillColor=none;align=left;verticalAlign=top;spacingLeft=4;spacingRight=4;overflow=hidden;rotatable=0;points=[[0,0.5],[1,0.5]];portConstraint=eastwest;whiteSpace=wrap;html=1;" parent="0TTyDZF8-Pn33Gr3SgQ3-191" vertex="1">
          <mxGeometry y="26" width="140" height="26" as="geometry" />
        </mxCell>
        <mxCell id="0TTyDZF8-Pn33Gr3SgQ3-193" value="Længde" style="text;strokeColor=none;fillColor=none;align=left;verticalAlign=top;spacingLeft=4;spacingRight=4;overflow=hidden;rotatable=0;points=[[0,0.5],[1,0.5]];portConstraint=eastwest;whiteSpace=wrap;html=1;" parent="0TTyDZF8-Pn33Gr3SgQ3-191" vertex="1">
          <mxGeometry y="52" width="140" height="26" as="geometry" />
        </mxCell>
        <mxCell id="0TTyDZF8-Pn33Gr3SgQ3-195" value="Forestilling" style="swimlane;fontStyle=1;align=center;verticalAlign=top;childLayout=stackLayout;horizontal=1;startSize=26;horizontalStack=0;resizeParent=1;resizeParentMax=0;resizeLast=0;collapsible=1;marginBottom=0;whiteSpace=wrap;html=1;" parent="1" vertex="1">
          <mxGeometry x="255" y="1630" width="160" height="86" as="geometry" />
        </mxCell>
        <mxCell id="0TTyDZF8-Pn33Gr3SgQ3-196" value="Starttid" style="text;strokeColor=none;fillColor=none;align=left;verticalAlign=top;spacingLeft=4;spacingRight=4;overflow=hidden;rotatable=0;points=[[0,0.5],[1,0.5]];portConstraint=eastwest;whiteSpace=wrap;html=1;" parent="0TTyDZF8-Pn33Gr3SgQ3-195" vertex="1">
          <mxGeometry y="26" width="160" height="26" as="geometry" />
        </mxCell>
        <mxCell id="0TTyDZF8-Pn33Gr3SgQ3-197" value="" style="line;strokeWidth=1;fillColor=none;align=left;verticalAlign=middle;spacingTop=-1;spacingLeft=3;spacingRight=3;rotatable=0;labelPosition=right;points=[];portConstraint=eastwest;strokeColor=inherit;" parent="0TTyDZF8-Pn33Gr3SgQ3-195" vertex="1">
          <mxGeometry y="52" width="160" height="8" as="geometry" />
        </mxCell>
        <mxCell id="0TTyDZF8-Pn33Gr3SgQ3-198" value="Pris" style="text;strokeColor=none;fillColor=none;align=left;verticalAlign=top;spacingLeft=4;spacingRight=4;overflow=hidden;rotatable=0;points=[[0,0.5],[1,0.5]];portConstraint=eastwest;whiteSpace=wrap;html=1;" parent="0TTyDZF8-Pn33Gr3SgQ3-195" vertex="1">
          <mxGeometry y="60" width="160" height="26" as="geometry" />
        </mxCell>
        <mxCell id="0TTyDZF8-Pn33Gr3SgQ3-199" value="&lt;b&gt;Sal&lt;/b&gt;" style="swimlane;fontStyle=0;childLayout=stackLayout;horizontal=1;startSize=26;fillColor=none;horizontalStack=0;resizeParent=1;resizeParentMax=0;resizeLast=0;collapsible=1;marginBottom=0;whiteSpace=wrap;html=1;" parent="1" vertex="1">
          <mxGeometry x="265" y="1760" width="140" height="52" as="geometry" />
        </mxCell>
        <mxCell id="0TTyDZF8-Pn33Gr3SgQ3-200" value="Navn" style="text;strokeColor=none;fillColor=none;align=left;verticalAlign=top;spacingLeft=4;spacingRight=4;overflow=hidden;rotatable=0;points=[[0,0.5],[1,0.5]];portConstraint=eastwest;whiteSpace=wrap;html=1;" parent="0TTyDZF8-Pn33Gr3SgQ3-199" vertex="1">
          <mxGeometry y="26" width="140" height="26" as="geometry" />
        </mxCell>
        <mxCell id="0TTyDZF8-Pn33Gr3SgQ3-209" value="&lt;b&gt;Række&lt;/b&gt;" style="swimlane;fontStyle=0;childLayout=stackLayout;horizontal=1;startSize=26;fillColor=none;horizontalStack=0;resizeParent=1;resizeParentMax=0;resizeLast=0;collapsible=1;marginBottom=0;whiteSpace=wrap;html=1;" parent="1" vertex="1">
          <mxGeometry x="441.37" y="1760" width="140" height="52" as="geometry" />
        </mxCell>
        <mxCell id="0TTyDZF8-Pn33Gr3SgQ3-210" value="Nr" style="text;strokeColor=none;fillColor=none;align=left;verticalAlign=top;spacingLeft=4;spacingRight=4;overflow=hidden;rotatable=0;points=[[0,0.5],[1,0.5]];portConstraint=eastwest;whiteSpace=wrap;html=1;" parent="0TTyDZF8-Pn33Gr3SgQ3-209" vertex="1">
          <mxGeometry y="26" width="140" height="26" as="geometry" />
        </mxCell>
        <mxCell id="0TTyDZF8-Pn33Gr3SgQ3-213" value="&lt;b&gt;Sæde&lt;/b&gt;" style="swimlane;fontStyle=0;childLayout=stackLayout;horizontal=1;startSize=26;fillColor=none;horizontalStack=0;resizeParent=1;resizeParentMax=0;resizeLast=0;collapsible=1;marginBottom=0;whiteSpace=wrap;html=1;" parent="1" vertex="1">
          <mxGeometry x="620" y="1760" width="140" height="52" as="geometry" />
        </mxCell>
        <mxCell id="0TTyDZF8-Pn33Gr3SgQ3-214" value="Nr" style="text;strokeColor=none;fillColor=none;align=left;verticalAlign=top;spacingLeft=4;spacingRight=4;overflow=hidden;rotatable=0;points=[[0,0.5],[1,0.5]];portConstraint=eastwest;whiteSpace=wrap;html=1;" parent="0TTyDZF8-Pn33Gr3SgQ3-213" vertex="1">
          <mxGeometry y="26" width="140" height="26" as="geometry" />
        </mxCell>
        <mxCell id="0TTyDZF8-Pn33Gr3SgQ3-217" value="&lt;b&gt;Reservation&lt;/b&gt;" style="swimlane;fontStyle=0;childLayout=stackLayout;horizontal=1;startSize=26;fillColor=none;horizontalStack=0;resizeParent=1;resizeParentMax=0;resizeLast=0;collapsible=1;marginBottom=0;whiteSpace=wrap;html=1;" parent="1" vertex="1">
          <mxGeometry x="620" y="1634" width="140" height="78" as="geometry" />
        </mxCell>
        <mxCell id="0TTyDZF8-Pn33Gr3SgQ3-218" value="Navn på reservør" style="text;strokeColor=none;fillColor=none;align=left;verticalAlign=top;spacingLeft=4;spacingRight=4;overflow=hidden;rotatable=0;points=[[0,0.5],[1,0.5]];portConstraint=eastwest;whiteSpace=wrap;html=1;" parent="0TTyDZF8-Pn33Gr3SgQ3-217" vertex="1">
          <mxGeometry y="26" width="140" height="26" as="geometry" />
        </mxCell>
        <mxCell id="6tpboSst4HTPqYVo0Ctu-29" value="Betalt" style="text;strokeColor=none;fillColor=none;align=left;verticalAlign=top;spacingLeft=4;spacingRight=4;overflow=hidden;rotatable=0;points=[[0,0.5],[1,0.5]];portConstraint=eastwest;whiteSpace=wrap;html=1;" parent="0TTyDZF8-Pn33Gr3SgQ3-217" vertex="1">
          <mxGeometry y="52" width="140" height="26" as="geometry" />
        </mxCell>
        <mxCell id="0TTyDZF8-Pn33Gr3SgQ3-227" value="Billet" style="rounded=0;whiteSpace=wrap;html=1;" parent="1" vertex="1">
          <mxGeometry x="530" y="1030" width="120" height="60" as="geometry" />
        </mxCell>
        <mxCell id="0TTyDZF8-Pn33Gr3SgQ3-228" value="Film" style="rounded=0;whiteSpace=wrap;html=1;" parent="1" vertex="1">
          <mxGeometry x="70" y="1030" width="120" height="60" as="geometry" />
        </mxCell>
        <mxCell id="6tpboSst4HTPqYVo0Ctu-31" value="Classname" style="swimlane;fontStyle=1;align=center;verticalAlign=top;childLayout=stackLayout;horizontal=1;startSize=26;horizontalStack=0;resizeParent=1;resizeParentMax=0;resizeLast=0;collapsible=1;marginBottom=0;whiteSpace=wrap;html=1;" parent="1" vertex="1">
          <mxGeometry x="290" y="2170" width="160" height="86" as="geometry" />
        </mxCell>
        <mxCell id="6tpboSst4HTPqYVo0Ctu-32" value="+ field: type" style="text;strokeColor=none;fillColor=none;align=left;verticalAlign=top;spacingLeft=4;spacingRight=4;overflow=hidden;rotatable=0;points=[[0,0.5],[1,0.5]];portConstraint=eastwest;whiteSpace=wrap;html=1;" parent="6tpboSst4HTPqYVo0Ctu-31" vertex="1">
          <mxGeometry y="26" width="160" height="26" as="geometry" />
        </mxCell>
        <mxCell id="6tpboSst4HTPqYVo0Ctu-33" value="" style="line;strokeWidth=1;fillColor=none;align=left;verticalAlign=middle;spacingTop=-1;spacingLeft=3;spacingRight=3;rotatable=0;labelPosition=right;points=[];portConstraint=eastwest;strokeColor=inherit;" parent="6tpboSst4HTPqYVo0Ctu-31" vertex="1">
          <mxGeometry y="52" width="160" height="8" as="geometry" />
        </mxCell>
        <mxCell id="6tpboSst4HTPqYVo0Ctu-34" value="+ method(type): type" style="text;strokeColor=none;fillColor=none;align=left;verticalAlign=top;spacingLeft=4;spacingRight=4;overflow=hidden;rotatable=0;points=[[0,0.5],[1,0.5]];portConstraint=eastwest;whiteSpace=wrap;html=1;" parent="6tpboSst4HTPqYVo0Ctu-31" vertex="1">
          <mxGeometry y="60" width="160" height="26" as="geometry" />
        </mxCell>
        <mxCell id="6tpboSst4HTPqYVo0Ctu-35" value="" style="endArrow=diamondThin;endFill=1;endSize=24;html=1;rounded=0;" parent="1" source="0TTyDZF8-Pn33Gr3SgQ3-213" target="0TTyDZF8-Pn33Gr3SgQ3-209" edge="1">
          <mxGeometry width="160" relative="1" as="geometry">
            <mxPoint x="416.37" y="1860" as="sourcePoint" />
            <mxPoint x="576.37" y="1860" as="targetPoint" />
          </mxGeometry>
        </mxCell>
        <mxCell id="6tpboSst4HTPqYVo0Ctu-36" value="" style="endArrow=diamondThin;endFill=1;endSize=24;html=1;rounded=0;" parent="1" source="0TTyDZF8-Pn33Gr3SgQ3-209" target="0TTyDZF8-Pn33Gr3SgQ3-199" edge="1">
          <mxGeometry width="160" relative="1" as="geometry">
            <mxPoint x="656.37" y="1840" as="sourcePoint" />
            <mxPoint x="516.37" y="1890" as="targetPoint" />
          </mxGeometry>
        </mxCell>
        <mxCell id="6tpboSst4HTPqYVo0Ctu-37" value="" style="endArrow=diamondThin;endFill=0;endSize=24;html=1;rounded=0;" parent="1" source="0TTyDZF8-Pn33Gr3SgQ3-199" target="0TTyDZF8-Pn33Gr3SgQ3-195" edge="1">
          <mxGeometry width="160" relative="1" as="geometry">
            <mxPoint x="76.37" y="1870" as="sourcePoint" />
            <mxPoint x="236.37" y="1870" as="targetPoint" />
          </mxGeometry>
        </mxCell>
        <mxCell id="6tpboSst4HTPqYVo0Ctu-40" value="" style="endArrow=diamondThin;endFill=0;endSize=24;html=1;rounded=0;" parent="1" source="0TTyDZF8-Pn33Gr3SgQ3-217" target="0TTyDZF8-Pn33Gr3SgQ3-213" edge="1">
          <mxGeometry width="160" relative="1" as="geometry">
            <mxPoint x="446.37" y="1730" as="sourcePoint" />
            <mxPoint x="606.37" y="1730" as="targetPoint" />
          </mxGeometry>
        </mxCell>
        <mxCell id="6tpboSst4HTPqYVo0Ctu-41" value="" style="endArrow=diamondThin;endFill=1;endSize=24;html=1;rounded=0;" parent="1" source="0TTyDZF8-Pn33Gr3SgQ3-217" target="0TTyDZF8-Pn33Gr3SgQ3-195" edge="1">
          <mxGeometry width="160" relative="1" as="geometry">
            <mxPoint x="446.37" y="1550" as="sourcePoint" />
            <mxPoint x="606.37" y="1550" as="targetPoint" />
          </mxGeometry>
        </mxCell>
        <mxCell id="6tpboSst4HTPqYVo0Ctu-42" value="" style="endArrow=diamondThin;endFill=0;endSize=24;html=1;rounded=0;" parent="1" source="0TTyDZF8-Pn33Gr3SgQ3-191" target="0TTyDZF8-Pn33Gr3SgQ3-195" edge="1">
          <mxGeometry width="160" relative="1" as="geometry">
            <mxPoint x="345.37" y="1770" as="sourcePoint" />
            <mxPoint x="345.37" y="1726" as="targetPoint" />
          </mxGeometry>
        </mxCell>
        <mxCell id="6tpboSst4HTPqYVo0Ctu-43" value="&lt;b&gt;Film&lt;/b&gt;" style="swimlane;fontStyle=0;childLayout=stackLayout;horizontal=1;startSize=26;fillColor=none;horizontalStack=0;resizeParent=1;resizeParentMax=0;resizeLast=0;collapsible=1;marginBottom=0;whiteSpace=wrap;html=1;" parent="1" vertex="1">
          <mxGeometry x="69" y="1844" width="140" height="78" as="geometry" />
        </mxCell>
        <mxCell id="6tpboSst4HTPqYVo0Ctu-44" value="Navn" style="text;strokeColor=none;fillColor=none;align=left;verticalAlign=top;spacingLeft=4;spacingRight=4;overflow=hidden;rotatable=0;points=[[0,0.5],[1,0.5]];portConstraint=eastwest;whiteSpace=wrap;html=1;" parent="6tpboSst4HTPqYVo0Ctu-43" vertex="1">
          <mxGeometry y="26" width="140" height="26" as="geometry" />
        </mxCell>
        <mxCell id="6tpboSst4HTPqYVo0Ctu-45" value="Længde" style="text;strokeColor=none;fillColor=none;align=left;verticalAlign=top;spacingLeft=4;spacingRight=4;overflow=hidden;rotatable=0;points=[[0,0.5],[1,0.5]];portConstraint=eastwest;whiteSpace=wrap;html=1;" parent="6tpboSst4HTPqYVo0Ctu-43" vertex="1">
          <mxGeometry y="52" width="140" height="26" as="geometry" />
        </mxCell>
        <mxCell id="6tpboSst4HTPqYVo0Ctu-46" value="Forestilling" style="swimlane;fontStyle=1;align=center;verticalAlign=top;childLayout=stackLayout;horizontal=1;startSize=26;horizontalStack=0;resizeParent=1;resizeParentMax=0;resizeLast=0;collapsible=1;marginBottom=0;whiteSpace=wrap;html=1;" parent="1" vertex="1">
          <mxGeometry x="254" y="1840" width="160" height="86" as="geometry" />
        </mxCell>
        <mxCell id="6tpboSst4HTPqYVo0Ctu-47" value="Starttid" style="text;strokeColor=none;fillColor=none;align=left;verticalAlign=top;spacingLeft=4;spacingRight=4;overflow=hidden;rotatable=0;points=[[0,0.5],[1,0.5]];portConstraint=eastwest;whiteSpace=wrap;html=1;" parent="6tpboSst4HTPqYVo0Ctu-46" vertex="1">
          <mxGeometry y="26" width="160" height="26" as="geometry" />
        </mxCell>
        <mxCell id="6tpboSst4HTPqYVo0Ctu-48" value="" style="line;strokeWidth=1;fillColor=none;align=left;verticalAlign=middle;spacingTop=-1;spacingLeft=3;spacingRight=3;rotatable=0;labelPosition=right;points=[];portConstraint=eastwest;strokeColor=inherit;" parent="6tpboSst4HTPqYVo0Ctu-46" vertex="1">
          <mxGeometry y="52" width="160" height="8" as="geometry" />
        </mxCell>
        <mxCell id="6tpboSst4HTPqYVo0Ctu-49" value="Pris" style="text;strokeColor=none;fillColor=none;align=left;verticalAlign=top;spacingLeft=4;spacingRight=4;overflow=hidden;rotatable=0;points=[[0,0.5],[1,0.5]];portConstraint=eastwest;whiteSpace=wrap;html=1;" parent="6tpboSst4HTPqYVo0Ctu-46" vertex="1">
          <mxGeometry y="60" width="160" height="26" as="geometry" />
        </mxCell>
        <mxCell id="6tpboSst4HTPqYVo0Ctu-50" value="&lt;b&gt;Sal&lt;/b&gt;" style="swimlane;fontStyle=0;childLayout=stackLayout;horizontal=1;startSize=26;fillColor=none;horizontalStack=0;resizeParent=1;resizeParentMax=0;resizeLast=0;collapsible=1;marginBottom=0;whiteSpace=wrap;html=1;" parent="1" vertex="1">
          <mxGeometry x="263" y="1985" width="140" height="52" as="geometry" />
        </mxCell>
        <mxCell id="6tpboSst4HTPqYVo0Ctu-51" value="Navn" style="text;strokeColor=none;fillColor=none;align=left;verticalAlign=top;spacingLeft=4;spacingRight=4;overflow=hidden;rotatable=0;points=[[0,0.5],[1,0.5]];portConstraint=eastwest;whiteSpace=wrap;html=1;" parent="6tpboSst4HTPqYVo0Ctu-50" vertex="1">
          <mxGeometry y="26" width="140" height="26" as="geometry" />
        </mxCell>
        <mxCell id="6tpboSst4HTPqYVo0Ctu-54" value="&lt;b&gt;Sæde&lt;/b&gt;" style="swimlane;fontStyle=0;childLayout=stackLayout;horizontal=1;startSize=26;fillColor=none;horizontalStack=0;resizeParent=1;resizeParentMax=0;resizeLast=0;collapsible=1;marginBottom=0;whiteSpace=wrap;html=1;" parent="1" vertex="1">
          <mxGeometry x="619" y="1970" width="140" height="82" as="geometry" />
        </mxCell>
        <mxCell id="6tpboSst4HTPqYVo0Ctu-55" value="Nr" style="text;strokeColor=none;fillColor=none;align=left;verticalAlign=top;spacingLeft=4;spacingRight=4;overflow=hidden;rotatable=0;points=[[0,0.5],[1,0.5]];portConstraint=eastwest;whiteSpace=wrap;html=1;" parent="6tpboSst4HTPqYVo0Ctu-54" vertex="1">
          <mxGeometry y="26" width="140" height="26" as="geometry" />
        </mxCell>
        <mxCell id="6tpboSst4HTPqYVo0Ctu-65" value="Række Nr" style="text;strokeColor=none;fillColor=none;align=left;verticalAlign=middle;spacingLeft=4;spacingRight=4;overflow=hidden;points=[[0,0.5],[1,0.5]];portConstraint=eastwest;rotatable=0;whiteSpace=wrap;html=1;" parent="6tpboSst4HTPqYVo0Ctu-54" vertex="1">
          <mxGeometry y="52" width="140" height="30" as="geometry" />
        </mxCell>
        <mxCell id="6tpboSst4HTPqYVo0Ctu-56" value="&lt;b&gt;Reservation&lt;/b&gt;" style="swimlane;fontStyle=0;childLayout=stackLayout;horizontal=1;startSize=26;fillColor=none;horizontalStack=0;resizeParent=1;resizeParentMax=0;resizeLast=0;collapsible=1;marginBottom=0;whiteSpace=wrap;html=1;" parent="1" vertex="1">
          <mxGeometry x="619" y="1844" width="140" height="78" as="geometry" />
        </mxCell>
        <mxCell id="6tpboSst4HTPqYVo0Ctu-57" value="Navn på reservør" style="text;strokeColor=none;fillColor=none;align=left;verticalAlign=top;spacingLeft=4;spacingRight=4;overflow=hidden;rotatable=0;points=[[0,0.5],[1,0.5]];portConstraint=eastwest;whiteSpace=wrap;html=1;" parent="6tpboSst4HTPqYVo0Ctu-56" vertex="1">
          <mxGeometry y="26" width="140" height="26" as="geometry" />
        </mxCell>
        <mxCell id="6tpboSst4HTPqYVo0Ctu-58" value="Betalt" style="text;strokeColor=none;fillColor=none;align=left;verticalAlign=top;spacingLeft=4;spacingRight=4;overflow=hidden;rotatable=0;points=[[0,0.5],[1,0.5]];portConstraint=eastwest;whiteSpace=wrap;html=1;" parent="6tpboSst4HTPqYVo0Ctu-56" vertex="1">
          <mxGeometry y="52" width="140" height="26" as="geometry" />
        </mxCell>
        <mxCell id="6tpboSst4HTPqYVo0Ctu-60" value="" style="endArrow=diamondThin;endFill=1;endSize=24;html=1;rounded=0;" parent="1" source="6tpboSst4HTPqYVo0Ctu-54" target="6tpboSst4HTPqYVo0Ctu-50" edge="1">
          <mxGeometry width="160" relative="1" as="geometry">
            <mxPoint x="438" y="2000" as="sourcePoint" />
            <mxPoint x="515.37" y="2100" as="targetPoint" />
          </mxGeometry>
        </mxCell>
        <mxCell id="6tpboSst4HTPqYVo0Ctu-61" value="" style="endArrow=diamondThin;endFill=0;endSize=24;html=1;rounded=0;" parent="1" source="6tpboSst4HTPqYVo0Ctu-50" target="6tpboSst4HTPqYVo0Ctu-46" edge="1">
          <mxGeometry width="160" relative="1" as="geometry">
            <mxPoint x="75.37" y="2080" as="sourcePoint" />
            <mxPoint x="235.37" y="2080" as="targetPoint" />
          </mxGeometry>
        </mxCell>
        <mxCell id="6tpboSst4HTPqYVo0Ctu-62" value="" style="endArrow=diamondThin;endFill=0;endSize=24;html=1;rounded=0;" parent="1" source="6tpboSst4HTPqYVo0Ctu-56" target="6tpboSst4HTPqYVo0Ctu-54" edge="1">
          <mxGeometry width="160" relative="1" as="geometry">
            <mxPoint x="445.37" y="1940" as="sourcePoint" />
            <mxPoint x="605.37" y="1940" as="targetPoint" />
          </mxGeometry>
        </mxCell>
        <mxCell id="6tpboSst4HTPqYVo0Ctu-63" value="" style="endArrow=diamondThin;endFill=1;endSize=24;html=1;rounded=0;" parent="1" source="6tpboSst4HTPqYVo0Ctu-56" target="6tpboSst4HTPqYVo0Ctu-46" edge="1">
          <mxGeometry width="160" relative="1" as="geometry">
            <mxPoint x="445.37" y="1760" as="sourcePoint" />
            <mxPoint x="605.37" y="1760" as="targetPoint" />
          </mxGeometry>
        </mxCell>
        <mxCell id="6tpboSst4HTPqYVo0Ctu-64" value="" style="endArrow=diamondThin;endFill=0;endSize=24;html=1;rounded=0;" parent="1" source="6tpboSst4HTPqYVo0Ctu-43" target="6tpboSst4HTPqYVo0Ctu-46" edge="1">
          <mxGeometry width="160" relative="1" as="geometry">
            <mxPoint x="344.37" y="1980" as="sourcePoint" />
            <mxPoint x="344.37" y="1936" as="targetPoint" />
          </mxGeometry>
        </mxCell>
      </root>
    </mxGraphModel>
  </diagram>
</mxfile>
